<svg width="197" height="49" viewBox="0 0 197 49" fill="none" xmlns="http://www.w3.org/2000/svg">
<path d="M16.8665 48H0.108665V0.727271H17.005C21.7599 0.727271 25.8532 1.67365 29.2848 3.56641C32.7164 5.44377 35.3555 8.14441 37.2021 11.6683C39.064 15.1922 39.995 19.4086 39.995 24.3175C39.995 29.2417 39.064 33.4735 37.2021 37.0128C35.3555 40.5521 32.701 43.2681 29.2386 45.1609C25.7917 47.0536 21.6676 48 16.8665 48ZM10.1033 39.4364H16.451C19.4055 39.4364 21.8907 38.9132 23.9066 37.8668C25.9379 36.805 27.4613 35.1662 28.4769 32.9503C29.5079 30.719 30.0234 27.8414 30.0234 24.3175C30.0234 20.8243 29.5079 17.9698 28.4769 15.7539C27.4613 13.538 25.9456 11.9068 23.9297 10.8604C21.9138 9.81404 19.4286 9.29084 16.4741 9.29084H10.1033V39.4364ZM63.3717 48.6925C59.7247 48.6925 56.5855 47.9538 53.9541 46.4766C51.3381 44.9839 49.3222 42.8757 47.9065 40.152C46.4908 37.4129 45.7829 34.1736 45.7829 30.4343C45.7829 26.7873 46.4908 23.5865 47.9065 20.832C49.3222 18.0775 51.315 15.9309 53.8849 14.392C56.4701 12.8532 59.5016 12.0838 62.9793 12.0838C65.3183 12.0838 67.4958 12.4608 69.5116 13.2148C71.5429 13.9535 73.3125 15.0691 74.8206 16.5618C76.344 18.0545 77.5289 19.9318 78.3753 22.1939C79.2216 24.4406 79.6448 27.072 79.6448 30.0881V32.7887H49.7069V26.695H70.3888C70.3888 25.2792 70.081 24.0251 69.4655 22.9325C68.8499 21.84 67.9959 20.9859 66.9033 20.3704C65.8261 19.7395 64.572 19.424 63.1409 19.424C61.6482 19.424 60.3248 19.7702 59.1707 20.4627C58.032 21.1398 57.1395 22.0554 56.4932 23.2095C55.8469 24.3482 55.516 25.6178 55.5006 27.0181V32.8118C55.5006 34.5661 55.8238 36.0818 56.4701 37.359C57.1318 38.6362 58.0628 39.6211 59.2631 40.3136C60.4633 41.006 61.8867 41.3523 63.5333 41.3523C64.6259 41.3523 65.6261 41.1984 66.534 40.8906C67.4419 40.5829 68.219 40.1212 68.8653 39.5057C69.5116 38.8902 70.0041 38.1361 70.3426 37.2436L79.4371 37.8438C78.9754 40.0289 78.029 41.937 76.5979 43.5682C75.1822 45.1839 73.351 46.4458 71.1043 47.3537C68.873 48.2462 66.2955 48.6925 63.3717 48.6925ZM86.2464 0.727271H98.5724L111.591 32.4886H112.145L125.163 0.727271H137.489V48H127.795V17.2312H127.402L115.169 47.7692H108.567L96.3334 17.1158H95.941V48H86.2464V0.727271ZM161.558 48.6925C157.973 48.6925 154.872 47.9308 152.256 46.4073C149.656 44.8685 147.647 42.7295 146.232 39.9904C144.816 37.2359 144.108 34.0428 144.108 30.4112C144.108 26.7488 144.816 23.5481 146.232 20.8089C147.647 18.0544 149.656 15.9155 152.256 14.392C154.872 12.8532 157.973 12.0838 161.558 12.0838C165.144 12.0838 168.237 12.8532 170.838 14.392C173.454 15.9155 175.469 18.0544 176.885 20.8089C178.301 23.5481 179.009 26.7488 179.009 30.4112C179.009 34.0428 178.301 37.2359 176.885 39.9904C175.469 42.7295 173.454 44.8685 170.838 46.4073C168.237 47.9308 165.144 48.6925 161.558 48.6925ZM161.605 41.0753C163.236 41.0753 164.598 40.6136 165.69 39.6903C166.783 38.7517 167.606 37.4744 168.16 35.8587C168.729 34.2429 169.014 32.404 169.014 30.342C169.014 28.2799 168.729 26.4411 168.16 24.8253C167.606 23.2095 166.783 21.9323 165.69 20.9936C164.598 20.0549 163.236 19.5856 161.605 19.5856C159.958 19.5856 158.573 20.0549 157.45 20.9936C156.342 21.9323 155.503 23.2095 154.934 24.8253C154.38 26.4411 154.103 28.2799 154.103 30.342C154.103 32.404 154.38 34.2429 154.934 35.8587C155.503 37.4744 156.342 38.7517 157.45 39.6903C158.573 40.6136 159.958 41.0753 161.605 41.0753ZM191.15 48.6001C189.627 48.6001 188.319 48.0616 187.226 46.9844C186.149 45.8918 185.61 44.5838 185.61 43.0604C185.61 41.5523 186.149 40.2597 187.226 39.1825C188.319 38.1053 189.627 37.5668 191.15 37.5668C192.627 37.5668 193.92 38.1053 195.028 39.1825C196.136 40.2597 196.69 41.5523 196.69 43.0604C196.69 44.076 196.428 45.007 195.905 45.8533C195.397 46.6843 194.728 47.3537 193.897 47.8615C193.066 48.3539 192.15 48.6001 191.15 48.6001Z" fill="#E71D36"/>
</svg>
